<svg xmlns="http://www.w3.org/2000/svg" width="888" height="661.904" viewBox="0 0 888 661.904">
  <g id="undraw_Walking_outside_re_56xo" transform="translate(0 -15.304)">
    <path id="Path_1" data-name="Path 1" d="M307.693,659.535l8.724,2.613,14.231-32.408-12.876-3.856Z" fill="#ffb8b8"/>
    <path id="Path_2" data-name="Path 2" d="M462.32,767.416l17.182,5.146h0a11.431,11.431,0,0,1,7.669,14.229l-.107.356-28.131-8.426Z" transform="translate(-156 -111.396)" fill="#2f2e41"/>
    <path id="Path_3" data-name="Path 3" d="M390.6,666.663l8.551-3.135-8.023-34.473-12.62,4.627Z" fill="#ffb8b8"/>
    <path id="Path_4" data-name="Path 4" d="M543.4,776.067l16.839-6.174h0a11.431,11.431,0,0,1,14.666,6.8l.128.349-27.572,10.11Z" transform="translate(-156 -111.396)" fill="#2f2e41"/>
    <path id="Path_5" data-name="Path 5" d="M322.321,600.868,307.464,649.9l17.828,5.2,17.086-45.315Z" fill="#2f2e41"/>
    <path id="Path_6" data-name="Path 6" d="M369.121,612.011l13.372,46.057,18.571-8.914-13.371-43.086Z" fill="#2f2e41"/>
    <path id="Path_7" data-name="Path 7" d="M518.162,731.714a203.977,203.977,0,0,1-35.457-3.27l-.3-.06v-11.33l-6.79-.754,5.3-18.928c-2.47-29.16,1.04-66.089,2.176-76.719.26-2.493.431-3.891.431-3.891l5.959-50.65,9.97-9.2,4.529,2.948,8.4,8.4c9.766,24.034,17.516,46.661,17.564,48.115L562.7,721.325l-.221.156C551.106,729.51,533.77,731.714,518.162,731.714Z" transform="translate(-156 -111.396)" fill="#3f3d56"/>
    <path id="Path_8" data-name="Path 8" d="M337.708,477.181l-2.29,14.294,15.5,6.395Z" opacity="0.2"/>
    <path id="Path_9" data-name="Path 9" d="M524.128,556.834H488.284a2.784,2.784,0,0,1-2.781-2.781V538.6a20.7,20.7,0,1,1,41.406,0v15.45a2.784,2.784,0,0,1-2.781,2.781Z" transform="translate(-156 -111.396)" fill="#2f2e41"/>
    <circle id="Ellipse_1" data-name="Ellipse 1" cx="15.179" cy="15.179" r="15.179" transform="translate(338.985 414.149)" fill="#ffb8b8"/>
    <path id="Path_10" data-name="Path 10" d="M531.807,540.148H509.889L509.664,537l-1.124,3.147h-3.375l-.445-6.237-2.227,6.237h-6.53v-.309a16.4,16.4,0,0,1,16.377-16.377h3.09a16.4,16.4,0,0,1,16.377,16.377Z" transform="translate(-156 -111.396)" fill="#2f2e41"/>
    <path id="Path_11" data-name="Path 11" d="M509.71,559.718a2.843,2.843,0,0,1-.492-.043l-16.049-2.832V530.318h17.667l-.437.51c-6.086,7.1-1.5,18.606,1.774,24.834a2.74,2.74,0,0,1-.218,2.909,2.77,2.77,0,0,1-2.244,1.147Z" transform="translate(-156 -111.396)" fill="#2f2e41"/>
    <path id="Path_12" data-name="Path 12" d="M538.029,623.83h-8.8a1.131,1.131,0,0,1-1.13-1.025l-1.761-18.049H540.92L539.159,622.8a1.131,1.131,0,0,1-1.13,1.025Z" transform="translate(-156 -111.396)" fill="#86bf98"/>
    <path id="Path_13" data-name="Path 13" d="M540.9,607.027H526.364a1.137,1.137,0,0,1-1.135-1.135v-2.725a1.137,1.137,0,0,1,1.135-1.135H540.9a1.137,1.137,0,0,1,1.135,1.135v2.725A1.137,1.137,0,0,1,540.9,607.027Z" transform="translate(-156 -111.396)" fill="#2f2e41"/>
    <path id="Path_14" data-name="Path 14" d="M483.892,616.064h0a27.881,27.881,0,0,0,33.468,6.765l3.3-1.635Z" transform="translate(-156 -111.396)" opacity="0.2"/>
    <path id="Path_15" data-name="Path 15" d="M536.711,612.57a6.966,6.966,0,0,0-10.676.322l-15.326-4.3-4.886,8.676,21.728,5.772a7,7,0,0,0,9.16-10.467Z" transform="translate(-156 -111.396)" fill="#ffb8b8"/>
    <path id="Path_16" data-name="Path 16" d="M500.139,622.2c-7.286,0-17.145-4.271-28.849-12.546a5.731,5.731,0,0,1-2.413-3.928c-.863-5.469,4.471-12.863,4.995-13.572l5.608-15.4c.065-.25,1.872-6.914,6.409-9.284a7.438,7.438,0,0,1,6.214-.265c8.642,3.147,1.894,27.448.968,30.635l11.45,5.389,7.271,4.635,9.958,1.042-2.7,12.512-15.123.34a15.43,15.43,0,0,1-3.784.442Z" transform="translate(-156 -111.396)" fill="#3f3d56"/>
    <circle id="Ellipse_3" data-name="Ellipse 3" cx="172.312" cy="172.312" r="172.312" transform="translate(73.247 15.304)" fill="#86bf98"/>
    <path id="Path_20" data-name="Path 20" d="M274.329,183.922a172.325,172.325,0,0,0,287.123,182.37,172.327,172.327,0,1,1-287.123-182.37Z" transform="translate(-156 -111.396)" opacity="0.2"/>
    <path id="Path_21" data-name="Path 21" d="M246.032,187.616h.474l8.521,488.532H237.038Z" fill="#3f3d56"/>
    <rect id="Rectangle_1" data-name="Rectangle 1" width="32.19" height="8.521" transform="translate(244.954 461.174) rotate(-27.766)" fill="#3f3d56"/>
    <path id="Path_22" data-name="Path 22" d="M665.115,782.975s.622-13.027,13.366-11.513" transform="translate(-156 -111.396)" fill="#3f3d56"/>
    <circle id="Ellipse_4" data-name="Ellipse 4" cx="6.379" cy="6.379" r="6.379" transform="translate(499.135 646.424)" fill="#86bf98"/>
    <rect id="Rectangle_2" data-name="Rectangle 2" width="1.801" height="12.604" transform="translate(504.476 663.545)" fill="#3f3d56"/>
    <path id="Path_23" data-name="Path 23" d="M223.083,781.174s.622-13.027,13.366-11.513" transform="translate(-156 -111.396)" fill="#3f3d56"/>
    <circle id="Ellipse_5" data-name="Ellipse 5" cx="6.379" cy="6.379" r="6.379" transform="translate(57.103 644.624)" fill="#86bf98"/>
    <rect id="Rectangle_3" data-name="Rectangle 3" width="1.801" height="12.604" transform="translate(62.444 661.744)" fill="#3f3d56"/>
    <path id="Path_24" data-name="Path 24" d="M327.514,782.075s.622-13.027,13.366-11.513" transform="translate(-156 -111.396)" fill="#3f3d56"/>
    <circle id="Ellipse_6" data-name="Ellipse 6" cx="6.379" cy="6.379" r="6.379" transform="translate(161.534 645.524)" fill="#86bf98"/>
    <rect id="Rectangle_4" data-name="Rectangle 4" width="1.801" height="12.604" transform="translate(166.875 662.644)" fill="#3f3d56"/>
    <path id="Path_25" data-name="Path 25" d="M605.243,194.7l12.795-10.233c-9.94-1.1-14.024,4.324-15.7,8.615-7.765-3.224-16.219,1-16.219,1l25.6,9.294A19.372,19.372,0,0,0,605.243,194.7Z" transform="translate(-156 -111.396)" fill="#3f3d56"/>
    <path id="Path_26" data-name="Path 26" d="M799.827,298.936,812.622,288.7c-9.94-1.1-14.024,4.324-15.7,8.615-7.765-3.224-16.219,1-16.219,1l25.6,9.294a19.373,19.373,0,0,0-6.481-8.677Z" transform="translate(-156 -111.396)" fill="#3f3d56"/>
    <path id="Path_27" data-name="Path 27" d="M589.955,387.889l12.795-10.233c-9.94-1.1-14.024,4.324-15.7,8.615-7.765-3.224-16.219,1-16.219,1l25.6,9.294a19.372,19.372,0,0,0-6.481-8.677Z" transform="translate(-156 -111.396)" fill="#3f3d56"/>
    <path id="Path_28" data-name="Path 28" d="M839.655,787.7s.622-13.027,13.366-11.513" transform="translate(-156 -111.396)" fill="#3f3d56"/>
    <path id="Path_29" data-name="Path 29" d="M719.919,787.7s.622-13.027,13.366-11.513" transform="translate(-156 -111.396)" fill="#3f3d56"/>
    <path id="Path_30" data-name="Path 30" d="M283.289,787.7s.622-13.027,13.366-11.513" transform="translate(-156 -111.396)" fill="#3f3d56"/>
    <path id="Path_31" data-name="Path 31" d="M893.671,787.7s.622-13.027,13.366-11.513" transform="translate(-156 -111.396)" fill="#3f3d56"/>
    <path id="Path_32" data-name="Path 32" d="M868.464,787.7s.622-13.027,13.366-11.513" transform="translate(-156 -111.396)" fill="#3f3d56"/>
    <path id="Path_33" data-name="Path 33" d="M816.465,787.7s-.622-13.027-13.366-11.513" transform="translate(-156 -111.396)" fill="#3f3d56"/>
    <path id="Path_34" data-name="Path 34" d="M609.4,787.7s-.622-13.027-13.366-11.513" transform="translate(-156 -111.396)" fill="#3f3d56"/>
    <path id="Path_35" data-name="Path 35" d="M437.452,787.7s-.622-13.027-13.366-11.513" transform="translate(-156 -111.396)" fill="#3f3d56"/>
    <path id="Path_36" data-name="Path 36" d="M254.7,787.7s-.622-13.027-13.366-11.513" transform="translate(-156 -111.396)" fill="#3f3d56"/>
    <path id="Path_37" data-name="Path 37" d="M947.9,787.7s-.622-13.027-13.366-11.513" transform="translate(-156 -111.396)" fill="#3f3d56"/>
    <path id="Path_38" data-name="Path 38" d="M870.481,788.6s-.622-13.027-13.366-11.513" transform="translate(-156 -111.396)" fill="#3f3d56"/>
    <rect id="Rectangle_5" data-name="Rectangle 5" width="888" height="2" transform="translate(0 674.604)" fill="#3f3d56"/>
  </g>
</svg>
