<svg xmlns="http://www.w3.org/2000/svg" width="60.661" height="40.036" viewBox="0 0 60.661 40.036">
  <g id="Group_1" data-name="Group 1" transform="translate(-50 -69.333)">
    <g id="Path_1" data-name="Path 1" transform="translate(37 52)" fill="none">
      <path d="M39.8,21.053c3.934-6.139,8.61-4.128,12.544,2.011L63.66,56.648C67.925,63.3,53.689,21.7,45.784,21.7h0c-7.905,0-29.922,41.6-25.657,34.943Z" stroke="none"/>
      <path d="M 45.04115295410156 18.33296966552734 C 43.51386642456055 18.33296966552734 42.03932571411133 19.42063140869141 40.65808868408203 21.56594848632812 L 38.03154373168945 26.3184928894043 C 39.34429931640625 24.79787445068359 40.54845428466797 23.58058929443359 41.62149429321289 22.69018173217773 C 43.23170471191406 21.35404205322266 44.59322357177734 20.70452117919922 45.78386306762695 20.70452117919922 C 47.59397125244141 20.70452117919922 49.5673713684082 22.20072937011719 51.81680297851562 25.27865982055664 C 51.95313262939453 25.46520614624023 52.09042358398438 25.65745544433594 52.22853851318359 25.85520172119141 L 51.43533706665039 23.50132369995117 C 49.27680206298828 20.16708374023438 47.00885391235352 18.33296966552734 45.04115295410156 18.33296966552734 M 45.04115295410156 17.33297729492188 C 47.53190612792969 17.33297729492188 50.06206893920898 19.5045166015625 52.34330368041992 23.06425094604492 L 56.56953811645508 35.60598373413086 C 53.00511932373047 28.17519760131836 48.90224075317383 21.70452117919922 45.78386306762695 21.70452117919922 C 41.85391998291016 21.70452117919922 34.43666076660156 31.98572158813477 28.49444580078125 41.50778579711914 L 39.79885101318359 21.05330276489258 C 41.45190811157227 18.47380828857422 43.23627853393555 17.33297729492188 45.04115295410156 17.33297729492188 Z M 56.56953811645508 35.60598373413086 C 62.04108428955078 47.01258087158203 66.24292755126953 60.67826843261719 63.66013336181641 56.6479606628418 L 56.56953811645508 35.60598373413086 Z M 28.49444580078125 41.50778579711914 L 20.12705230712891 56.6479606628418 C 17.98213958740234 59.99496841430664 22.48365020751953 51.13973999023438 28.49444580078125 41.50778579711914 Z" stroke="none" fill="#000"/>
    </g>
    <g id="Path_2" data-name="Path 2" transform="translate(50 84)" fill="none">
      <path d="M43.62,4.581,60.661-7.314,45.935,8H0Z" stroke="none"/>
      <path d="M 45.50887298583984 6.999996662139893 L 52.87422180175781 -0.6590735912322998 L 43.96968841552734 5.556346416473389 L 25.55309867858887 6.999996662139893 L 45.50887298583984 6.999996662139893 M 45.93457794189453 7.999996662139893 L -1.523437504147296e-06 7.999996662139893 L 43.62036895751953 4.580666542053223 L 60.661376953125 -7.314083576202393 L 45.93457794189453 7.999996662139893 Z" stroke="none" fill="#000"/>
    </g>
  </g>
</svg>
